<svg width="1046" height="351" viewBox="0 0 1046 351" fill="none" xmlns="http://www.w3.org/2000/svg">
<path d="M30.6245 188.069C32.0752 188.069 33.1312 187.823 33.7925 187.333C34.4539 186.842 34.7845 186.149 34.7845 185.253C34.7845 184.719 34.6672 184.261 34.4325 183.877C34.2192 183.493 33.8992 183.151 33.4725 182.853C33.0672 182.533 32.5659 182.245 31.9685 181.989C31.3712 181.711 30.6885 181.445 29.9205 181.189C29.1525 180.911 28.4059 180.613 27.6805 180.293C26.9765 179.951 26.3472 179.535 25.7925 179.045C25.2592 178.554 24.8219 177.967 24.4805 177.285C24.1605 176.602 24.0005 175.781 24.0005 174.821C24.0005 172.815 24.6939 171.247 26.0805 170.117C27.4672 168.965 29.3552 168.389 31.7445 168.389C33.1312 168.389 34.3579 168.549 35.4245 168.869C36.5125 169.167 37.3659 169.498 37.9845 169.861L36.7365 173.125C36.0112 172.719 35.2112 172.41 34.3365 172.197C33.4832 171.983 32.5979 171.877 31.6805 171.877C30.5925 171.877 29.7392 172.101 29.1205 172.549C28.5232 172.997 28.2245 173.626 28.2245 174.437C28.2245 174.927 28.3205 175.354 28.5125 175.717C28.7259 176.058 29.0139 176.367 29.3765 176.645C29.7605 176.922 30.1979 177.178 30.6885 177.413C31.2005 177.647 31.7552 177.871 32.3525 178.085C33.3979 178.469 34.3259 178.863 35.1365 179.269C35.9685 179.653 36.6619 180.122 37.2165 180.677C37.7925 181.21 38.2299 181.85 38.5285 182.597C38.8272 183.322 38.9765 184.207 38.9765 185.253C38.9765 187.258 38.2619 188.815 36.8325 189.925C35.4245 191.013 33.3552 191.557 30.6245 191.557C29.7072 191.557 28.8645 191.493 28.0965 191.365C27.3499 191.258 26.6779 191.119 26.0805 190.949C25.5045 190.778 25.0032 190.607 24.5765 190.437C24.1499 190.245 23.8085 190.074 23.5525 189.925L24.7365 186.629C25.3125 186.949 26.0912 187.269 27.0725 187.589C28.0539 187.909 29.2379 188.069 30.6245 188.069ZM41.4098 182.789C41.4098 181.317 41.6231 180.026 42.0498 178.917C42.4978 177.807 43.0844 176.89 43.8098 176.165C44.5351 175.418 45.3671 174.863 46.3058 174.501C47.2444 174.117 48.2044 173.925 49.1858 173.925C51.4898 173.925 53.2818 174.639 54.5618 176.069C55.8631 177.498 56.5138 179.631 56.5138 182.469C56.5138 182.682 56.5031 182.927 56.4818 183.205C56.4818 183.461 56.4711 183.695 56.4498 183.909H45.4098C45.5164 185.253 45.9858 186.298 46.8178 187.045C47.6711 187.77 48.8978 188.133 50.4978 188.133C51.4364 188.133 52.2898 188.047 53.0578 187.877C53.8471 187.706 54.4658 187.525 54.9138 187.333L55.4258 190.501C55.2124 190.607 54.9138 190.725 54.5298 190.853C54.1671 190.959 53.7404 191.055 53.2498 191.141C52.7804 191.247 52.2684 191.333 51.7138 191.397C51.1591 191.461 50.5938 191.493 50.0178 191.493C48.5458 191.493 47.2658 191.279 46.1778 190.853C45.0898 190.405 44.1938 189.797 43.4898 189.029C42.7858 188.239 42.2631 187.322 41.9218 186.277C41.5804 185.21 41.4098 184.047 41.4098 182.789ZM52.6418 181.061C52.6418 180.527 52.5671 180.026 52.4178 179.557C52.2684 179.066 52.0444 178.65 51.7458 178.309C51.4684 177.946 51.1164 177.669 50.6898 177.477C50.2844 177.263 49.7938 177.157 49.2178 177.157C48.6204 177.157 48.0978 177.274 47.6498 177.509C47.2018 177.722 46.8178 178.01 46.4978 178.373C46.1991 178.735 45.9644 179.151 45.7938 179.621C45.6231 180.09 45.5058 180.57 45.4418 181.061H52.6418ZM66.443 191.397C65.291 191.375 64.331 191.247 63.563 191.013C62.8164 190.778 62.219 190.447 61.771 190.021C61.323 189.573 61.003 189.029 60.811 188.389C60.6404 187.727 60.555 186.981 60.555 186.149V166.885L64.427 166.245V185.413C64.427 185.882 64.459 186.277 64.523 186.597C64.6084 186.917 64.747 187.194 64.939 187.429C65.131 187.642 65.387 187.813 65.707 187.941C66.0484 188.047 66.475 188.133 66.987 188.197L66.443 191.397ZM69.191 182.789C69.191 181.317 69.4044 180.026 69.831 178.917C70.279 177.807 70.8657 176.89 71.591 176.165C72.3164 175.418 73.1484 174.863 74.087 174.501C75.0257 174.117 75.9857 173.925 76.967 173.925C79.271 173.925 81.063 174.639 82.343 176.069C83.6444 177.498 84.295 179.631 84.295 182.469C84.295 182.682 84.2844 182.927 84.263 183.205C84.263 183.461 84.2524 183.695 84.231 183.909H73.191C73.2977 185.253 73.767 186.298 74.599 187.045C75.4524 187.77 76.679 188.133 78.279 188.133C79.2177 188.133 80.071 188.047 80.839 187.877C81.6284 187.706 82.247 187.525 82.695 187.333L83.207 190.501C82.9937 190.607 82.695 190.725 82.311 190.853C81.9484 190.959 81.5217 191.055 81.031 191.141C80.5617 191.247 80.0497 191.333 79.495 191.397C78.9404 191.461 78.375 191.493 77.799 191.493C76.327 191.493 75.047 191.279 73.959 190.853C72.871 190.405 71.975 189.797 71.271 189.029C70.567 188.239 70.0444 187.322 69.703 186.277C69.3617 185.21 69.191 184.047 69.191 182.789ZM80.423 181.061C80.423 180.527 80.3484 180.026 80.199 179.557C80.0497 179.066 79.8257 178.65 79.527 178.309C79.2497 177.946 78.8977 177.669 78.471 177.477C78.0657 177.263 77.575 177.157 76.999 177.157C76.4017 177.157 75.879 177.274 75.431 177.509C74.983 177.722 74.599 178.01 74.279 178.373C73.9804 178.735 73.7457 179.151 73.575 179.621C73.4044 180.09 73.287 180.57 73.223 181.061H80.423ZM87.4723 182.725C87.4723 181.487 87.6643 180.335 88.0483 179.269C88.4323 178.181 88.9763 177.242 89.6803 176.453C90.4056 175.663 91.2803 175.045 92.3043 174.597C93.3283 174.149 94.4803 173.925 95.7603 173.925C97.3389 173.925 98.8323 174.213 100.24 174.789L99.4083 177.957C98.9603 177.765 98.4483 177.605 97.8723 177.477C97.3176 177.349 96.7203 177.285 96.0803 177.285C94.5656 177.285 93.4136 177.765 92.6243 178.725C91.8349 179.663 91.4403 180.997 91.4403 182.725C91.4403 184.389 91.8136 185.711 92.5603 186.693C93.3069 187.653 94.5656 188.133 96.3363 188.133C96.9976 188.133 97.6483 188.069 98.2883 187.941C98.9283 187.813 99.4829 187.653 99.9523 187.461L100.496 190.661C100.07 190.874 99.4189 191.066 98.5443 191.237C97.6909 191.407 96.8056 191.493 95.8883 191.493C94.4589 191.493 93.2109 191.279 92.1443 190.853C91.0989 190.405 90.2243 189.797 89.5203 189.029C88.8376 188.239 88.3256 187.311 87.9843 186.245C87.6429 185.157 87.4723 183.983 87.4723 182.725ZM103.302 169.925L107.174 169.285V174.341H113.126V177.573H107.174V184.389C107.174 185.733 107.387 186.693 107.814 187.269C108.241 187.845 108.966 188.133 109.99 188.133C110.694 188.133 111.313 188.058 111.846 187.909C112.401 187.759 112.838 187.621 113.158 187.493L113.798 190.565C113.35 190.757 112.763 190.949 112.038 191.141C111.313 191.354 110.459 191.461 109.478 191.461C108.283 191.461 107.281 191.301 106.47 190.981C105.681 190.661 105.051 190.202 104.582 189.605C104.113 188.986 103.782 188.25 103.59 187.397C103.398 186.522 103.302 185.53 103.302 184.421V169.925Z" fill="black"/>
<path d="M481.282 124.06C479.618 124.06 478.124 123.804 476.802 123.292C475.479 122.78 474.359 122.034 473.442 121.052C472.524 120.05 471.82 118.834 471.33 117.404C470.839 115.975 470.594 114.332 470.594 112.476C470.594 110.62 470.871 108.978 471.426 107.548C472.002 106.119 472.78 104.914 473.762 103.932C474.743 102.93 475.895 102.172 477.218 101.66C478.54 101.148 479.959 100.892 481.474 100.892C482.391 100.892 483.223 100.967 483.97 101.116C484.716 101.244 485.367 101.394 485.922 101.564C486.476 101.735 486.935 101.916 487.298 102.108C487.66 102.3 487.916 102.439 488.066 102.524L486.882 105.82C486.37 105.5 485.634 105.202 484.674 104.924C483.735 104.626 482.711 104.476 481.602 104.476C480.642 104.476 479.746 104.647 478.914 104.988C478.082 105.308 477.356 105.799 476.738 106.46C476.14 107.122 475.671 107.954 475.33 108.956C474.988 109.959 474.818 111.122 474.818 112.444C474.818 113.618 474.946 114.695 475.202 115.676C475.479 116.658 475.895 117.511 476.45 118.236C477.004 118.94 477.708 119.495 478.562 119.9C479.415 120.284 480.439 120.476 481.634 120.476C483.063 120.476 484.226 120.338 485.122 120.06C486.018 119.762 486.711 119.484 487.202 119.228L488.29 122.524C488.034 122.695 487.682 122.866 487.234 123.036C486.807 123.207 486.295 123.378 485.698 123.548C485.1 123.698 484.428 123.815 483.682 123.9C482.935 124.007 482.135 124.06 481.282 124.06ZM497.464 123.9C496.312 123.879 495.352 123.751 494.584 123.516C493.837 123.282 493.24 122.951 492.792 122.524C492.344 122.076 492.024 121.532 491.832 120.892C491.661 120.231 491.576 119.484 491.576 118.652V99.3883L495.448 98.7483V117.916C495.448 118.386 495.48 118.78 495.544 119.1C495.629 119.42 495.768 119.698 495.96 119.932C496.152 120.146 496.408 120.316 496.728 120.444C497.069 120.551 497.496 120.636 498.008 120.7L497.464 123.9ZM505.044 123.58H501.172V106.844H505.044V123.58ZM505.46 101.948C505.46 102.674 505.225 103.25 504.756 103.676C504.287 104.103 503.732 104.316 503.092 104.316C502.431 104.316 501.865 104.103 501.396 103.676C500.927 103.25 500.692 102.674 500.692 101.948C500.692 101.202 500.927 100.615 501.396 100.188C501.865 99.7617 502.431 99.5483 503.092 99.5483C503.732 99.5483 504.287 99.7617 504.756 100.188C505.225 100.615 505.46 101.202 505.46 101.948ZM509.056 115.228C509.056 113.991 509.248 112.839 509.632 111.772C510.016 110.684 510.56 109.746 511.264 108.956C511.989 108.167 512.864 107.548 513.888 107.1C514.912 106.652 516.064 106.428 517.344 106.428C518.922 106.428 520.416 106.716 521.824 107.292L520.992 110.46C520.544 110.268 520.032 110.108 519.456 109.98C518.901 109.852 518.304 109.788 517.664 109.788C516.149 109.788 514.997 110.268 514.208 111.228C513.418 112.167 513.024 113.5 513.024 115.228C513.024 116.892 513.397 118.215 514.144 119.196C514.89 120.156 516.149 120.636 517.92 120.636C518.581 120.636 519.232 120.572 519.872 120.444C520.512 120.316 521.066 120.156 521.536 119.964L522.08 123.164C521.653 123.378 521.002 123.57 520.128 123.74C519.274 123.911 518.389 123.996 517.472 123.996C516.042 123.996 514.794 123.783 513.728 123.356C512.682 122.908 511.808 122.3 511.104 121.532C510.421 120.743 509.909 119.815 509.568 118.748C509.226 117.66 509.056 116.487 509.056 115.228ZM528.949 113.372C529.44 112.86 529.963 112.316 530.517 111.74C531.072 111.143 531.616 110.556 532.149 109.98C532.683 109.383 533.184 108.818 533.653 108.284C534.144 107.73 534.56 107.25 534.901 106.844H539.477C538.411 108.039 537.28 109.276 536.085 110.556C534.912 111.836 533.728 113.084 532.533 114.3C533.173 114.834 533.845 115.484 534.549 116.252C535.253 116.999 535.936 117.799 536.597 118.652C537.259 119.506 537.877 120.359 538.453 121.212C539.029 122.066 539.509 122.855 539.893 123.58H535.413C535.029 122.919 534.581 122.226 534.069 121.5C533.579 120.775 533.045 120.071 532.469 119.388C531.893 118.706 531.307 118.066 530.709 117.468C530.112 116.85 529.525 116.327 528.949 115.9V123.58H525.077V99.3883L528.949 98.7483V113.372Z" fill="black"/>
<path d="M911.429 181.911C914.629 181.911 917.071 182.498 918.757 183.671C920.463 184.845 921.317 186.637 921.317 189.047C921.317 192.055 919.834 194.093 916.869 195.159C917.274 195.65 917.733 196.247 918.245 196.951C918.757 197.655 919.279 198.423 919.813 199.255C920.346 200.066 920.858 200.909 921.349 201.783C921.839 202.637 922.277 203.479 922.661 204.311H918.149C917.743 203.543 917.306 202.775 916.837 202.007C916.367 201.218 915.887 200.461 915.397 199.735C914.927 198.989 914.458 198.295 913.989 197.655C913.519 196.994 913.082 196.407 912.677 195.895C912.378 195.917 912.122 195.927 911.909 195.927C911.695 195.927 911.493 195.927 911.301 195.927H909.349V204.311H905.317V182.455C906.298 182.242 907.343 182.103 908.453 182.039C909.562 181.954 910.554 181.911 911.429 181.911ZM911.717 185.399C910.863 185.399 910.074 185.431 909.349 185.495V192.663H911.109C912.09 192.663 912.954 192.61 913.701 192.503C914.447 192.397 915.066 192.205 915.557 191.927C916.069 191.65 916.453 191.277 916.709 190.807C916.965 190.338 917.093 189.741 917.093 189.015C917.093 188.333 916.965 187.757 916.709 187.287C916.453 186.818 916.079 186.445 915.589 186.167C915.119 185.89 914.554 185.698 913.893 185.591C913.231 185.463 912.506 185.399 911.717 185.399ZM924.665 196.023C924.665 194.551 924.879 193.261 925.305 192.151C925.753 191.042 926.34 190.125 927.065 189.399C927.791 188.653 928.623 188.098 929.561 187.735C930.5 187.351 931.46 187.159 932.441 187.159C934.745 187.159 936.537 187.874 937.817 189.303C939.119 190.733 939.769 192.866 939.769 195.703C939.769 195.917 939.759 196.162 939.737 196.439C939.737 196.695 939.727 196.93 939.705 197.143H928.665C928.772 198.487 929.241 199.533 930.073 200.279C930.927 201.005 932.153 201.367 933.753 201.367C934.692 201.367 935.545 201.282 936.313 201.111C937.103 200.941 937.721 200.759 938.169 200.567L938.681 203.735C938.468 203.842 938.169 203.959 937.785 204.087C937.423 204.194 936.996 204.29 936.505 204.375C936.036 204.482 935.524 204.567 934.969 204.631C934.415 204.695 933.849 204.727 933.273 204.727C931.801 204.727 930.521 204.514 929.433 204.087C928.345 203.639 927.449 203.031 926.745 202.263C926.041 201.474 925.519 200.557 925.177 199.511C924.836 198.445 924.665 197.282 924.665 196.023ZM935.897 194.295C935.897 193.762 935.823 193.261 935.673 192.791C935.524 192.301 935.3 191.885 935.001 191.543C934.724 191.181 934.372 190.903 933.945 190.711C933.54 190.498 933.049 190.391 932.473 190.391C931.876 190.391 931.353 190.509 930.905 190.743C930.457 190.957 930.073 191.245 929.753 191.607C929.455 191.97 929.22 192.386 929.049 192.855C928.879 193.325 928.761 193.805 928.697 194.295H935.897ZM948.067 201.527C949.091 201.527 949.837 201.41 950.307 201.175C950.776 200.919 951.011 200.493 951.011 199.895C951.011 199.341 950.755 198.882 950.243 198.519C949.752 198.157 948.931 197.762 947.779 197.335C947.075 197.079 946.424 196.813 945.827 196.535C945.251 196.237 944.749 195.895 944.323 195.511C943.896 195.127 943.555 194.669 943.299 194.135C943.064 193.581 942.947 192.909 942.947 192.119C942.947 190.583 943.512 189.378 944.643 188.503C945.773 187.607 947.309 187.159 949.251 187.159C950.232 187.159 951.171 187.255 952.067 187.447C952.963 187.618 953.635 187.789 954.083 187.959L953.379 191.095C952.952 190.903 952.408 190.733 951.747 190.583C951.085 190.413 950.317 190.327 949.443 190.327C948.653 190.327 948.013 190.466 947.523 190.743C947.032 190.999 946.787 191.405 946.787 191.959C946.787 192.237 946.829 192.482 946.915 192.695C947.021 192.909 947.192 193.111 947.427 193.303C947.661 193.474 947.971 193.655 948.355 193.847C948.739 194.018 949.208 194.199 949.763 194.391C950.68 194.733 951.459 195.074 952.099 195.415C952.739 195.735 953.261 196.109 953.667 196.535C954.093 196.941 954.403 197.41 954.595 197.943C954.787 198.477 954.883 199.117 954.883 199.863C954.883 201.463 954.285 202.679 953.091 203.511C951.917 204.322 950.232 204.727 948.035 204.727C946.563 204.727 945.379 204.599 944.483 204.343C943.587 204.109 942.957 203.917 942.595 203.767L943.267 200.535C943.843 200.77 944.525 200.994 945.315 201.207C946.125 201.421 947.043 201.527 948.067 201.527ZM957.572 196.023C957.572 194.551 957.785 193.261 958.212 192.151C958.66 191.042 959.246 190.125 959.972 189.399C960.697 188.653 961.529 188.098 962.468 187.735C963.406 187.351 964.366 187.159 965.348 187.159C967.652 187.159 969.444 187.874 970.724 189.303C972.025 190.733 972.676 192.866 972.676 195.703C972.676 195.917 972.665 196.162 972.644 196.439C972.644 196.695 972.633 196.93 972.612 197.143H961.572C961.678 198.487 962.148 199.533 962.98 200.279C963.833 201.005 965.06 201.367 966.66 201.367C967.598 201.367 968.452 201.282 969.22 201.111C970.009 200.941 970.628 200.759 971.076 200.567L971.588 203.735C971.374 203.842 971.076 203.959 970.692 204.087C970.329 204.194 969.902 204.29 969.412 204.375C968.942 204.482 968.43 204.567 967.876 204.631C967.321 204.695 966.756 204.727 966.18 204.727C964.708 204.727 963.428 204.514 962.34 204.087C961.252 203.639 960.356 203.031 959.652 202.263C958.948 201.474 958.425 200.557 958.084 199.511C957.742 198.445 957.572 197.282 957.572 196.023ZM968.804 194.295C968.804 193.762 968.729 193.261 968.58 192.791C968.43 192.301 968.206 191.885 967.908 191.543C967.63 191.181 967.278 190.903 966.852 190.711C966.446 190.498 965.956 190.391 965.38 190.391C964.782 190.391 964.26 190.509 963.812 190.743C963.364 190.957 962.98 191.245 962.66 191.607C962.361 191.97 962.126 192.386 961.956 192.855C961.785 193.325 961.668 193.805 961.604 194.295H968.804ZM986.317 191.063C985.997 190.957 985.549 190.85 984.973 190.743C984.418 190.615 983.768 190.551 983.021 190.551C982.594 190.551 982.136 190.594 981.645 190.679C981.176 190.765 980.845 190.839 980.653 190.903V204.311H976.781V188.375C977.528 188.098 978.456 187.842 979.565 187.607C980.696 187.351 981.944 187.223 983.309 187.223C983.565 187.223 983.864 187.245 984.205 187.287C984.546 187.309 984.888 187.351 985.229 187.415C985.57 187.458 985.901 187.522 986.221 187.607C986.541 187.671 986.797 187.735 986.989 187.799L986.317 191.063ZM994.538 204.311C993.471 202.114 992.372 199.597 991.242 196.759C990.132 193.901 989.119 190.839 988.202 187.575H992.33C992.564 188.514 992.831 189.527 993.13 190.615C993.45 191.682 993.78 192.759 994.122 193.847C994.484 194.914 994.847 195.959 995.21 196.983C995.594 197.986 995.946 198.893 996.266 199.703C996.586 198.893 996.927 197.986 997.29 196.983C997.652 195.959 998.004 194.914 998.346 193.847C998.708 192.759 999.05 191.682 999.37 190.615C999.69 189.527 999.967 188.514 1000.2 187.575H1004.2C1003.28 190.839 1002.26 193.901 1001.13 196.759C1000.02 199.597 998.932 202.114 997.866 204.311H994.538ZM1005.79 196.023C1005.79 194.551 1006 193.261 1006.43 192.151C1006.88 191.042 1007.47 190.125 1008.19 189.399C1008.92 188.653 1009.75 188.098 1010.69 187.735C1011.63 187.351 1012.59 187.159 1013.57 187.159C1015.87 187.159 1017.66 187.874 1018.94 189.303C1020.24 190.733 1020.89 192.866 1020.89 195.703C1020.89 195.917 1020.88 196.162 1020.86 196.439C1020.86 196.695 1020.85 196.93 1020.83 197.143H1009.79C1009.9 198.487 1010.37 199.533 1011.2 200.279C1012.05 201.005 1013.28 201.367 1014.88 201.367C1015.82 201.367 1016.67 201.282 1017.44 201.111C1018.23 200.941 1018.85 200.759 1019.29 200.567L1019.81 203.735C1019.59 203.842 1019.29 203.959 1018.91 204.087C1018.55 204.194 1018.12 204.29 1017.63 204.375C1017.16 204.482 1016.65 204.567 1016.09 204.631C1015.54 204.695 1014.97 204.727 1014.4 204.727C1012.93 204.727 1011.65 204.514 1010.56 204.087C1009.47 203.639 1008.57 203.031 1007.87 202.263C1007.17 201.474 1006.64 200.557 1006.3 199.511C1005.96 198.445 1005.79 197.282 1005.79 196.023ZM1017.02 194.295C1017.02 193.762 1016.95 193.261 1016.8 192.791C1016.65 192.301 1016.43 191.885 1016.13 191.543C1015.85 191.181 1015.5 190.903 1015.07 190.711C1014.67 190.498 1014.17 190.391 1013.6 190.391C1013 190.391 1012.48 190.509 1012.03 190.743C1011.58 190.957 1011.2 191.245 1010.88 191.607C1010.58 191.97 1010.35 192.386 1010.17 192.855C1010 193.325 1009.89 193.805 1009.82 194.295H1017.02Z" fill="black"/>
<path d="M436.853 304.953C436.853 267.639 417.524 242.015 417.524 224.035C417.524 206.055 427.86 168.294 510.574 168.294C593.288 168.294 605.426 219.094 605.426 238.87C605.431 331.478 436.853 371.036 436.853 304.953Z" fill="#EFEFEF"/>
<path d="M493.943 238.207C506.605 238.207 516.869 227.942 516.869 215.28C516.869 202.618 506.605 192.353 493.943 192.353C481.281 192.353 471.016 202.618 471.016 215.28C471.016 227.942 481.281 238.207 493.943 238.207Z" fill="#A581C4"/>
<path d="M483.154 215.28C483.154 204.734 490.318 195.941 500.012 193.27C498.039 192.693 495.998 192.384 493.943 192.353C487.862 192.353 482.031 194.769 477.731 199.068C473.432 203.368 471.016 209.199 471.016 215.28C471.016 221.36 473.432 227.192 477.731 231.492C482.031 235.791 487.862 238.207 493.943 238.207C496.057 238.207 498.064 237.829 500.012 237.29C490.318 234.619 483.154 225.826 483.154 215.28Z" fill="#8962AA"/>
<path d="M497.989 248.979H506.081V254.374H497.989V248.979ZM514.172 254.374H522.264V258.42H514.172V254.374Z" fill="black"/>
<path d="M550.585 259.768V292.135C550.585 304.057 540.929 313.713 529.007 313.713H499.122C486.39 313.713 467.024 307.024 466.97 278.649C466.97 269.047 474.576 261.117 484.179 261.117H485.851V216.612C485.851 212.135 489.465 208.521 493.943 208.521C498.42 208.521 502.035 212.135 502.035 216.612V248.979C502.035 244.502 505.649 240.888 510.126 240.888C514.604 240.888 518.218 244.502 518.218 248.979V254.374C518.218 249.896 521.832 246.282 526.31 246.282C530.787 246.282 534.402 249.896 534.402 254.374V259.768C534.402 255.291 538.016 251.677 542.493 251.677C546.971 251.677 550.585 255.291 550.585 259.768Z" fill="#F3F3F1"/>
<path d="M530.356 248.979V254.374C530.356 252.329 531.133 250.49 532.379 249.066C531.756 248.353 531.011 247.757 530.178 247.307C530.291 247.841 530.356 248.402 530.356 248.979ZM546.539 254.374V259.768C546.539 257.724 547.316 255.884 548.562 254.46C547.94 253.747 547.194 253.151 546.361 252.702C546.475 253.236 546.539 253.797 546.539 254.374ZM479.108 278.649C479.108 269.047 486.714 261.117 496.316 261.117H497.989V216.612C497.989 214.568 498.765 212.728 500.012 211.304C499.259 210.432 498.327 209.733 497.28 209.252C496.233 208.772 495.095 208.522 493.943 208.521C489.465 208.521 485.851 212.135 485.851 216.612V261.117H484.179C474.576 261.117 466.97 269.047 466.97 278.649C467.024 307.024 486.39 313.713 499.122 313.713H511.259C498.528 313.713 479.162 307.024 479.108 278.649ZM514.172 248.979C514.172 246.935 514.949 245.095 516.195 243.671C515.617 243.009 514.933 242.446 514.172 242.004V248.979Z" fill="#D5DBE1"/>
<path d="M441.168 234.161C436.707 234.161 433.077 230.53 433.077 226.069C433.077 221.608 436.707 217.977 441.168 217.977C445.63 217.977 449.26 221.608 449.26 226.069C449.26 230.53 445.63 234.161 441.168 234.161ZM441.168 223.372C439.685 223.372 438.471 224.585 438.471 226.069C438.471 227.552 439.685 228.766 441.168 228.766C442.652 228.766 443.866 227.552 443.866 226.069C443.866 224.585 442.652 223.372 441.168 223.372ZM576.047 185.141L583.67 177.513L587.484 181.327L579.856 188.955L576.047 185.141ZM554.108 207.059L561.736 199.431L565.55 203.245L557.922 210.873L554.108 207.059ZM554.113 180.361L557.927 176.547L565.555 184.175L561.741 187.989L554.113 180.361ZM576.036 202.301L579.85 198.487L587.484 206.109L583.67 209.923L576.036 202.301Z" fill="#A4AFC1"/>
<path d="M489.897 275.968H481.805V216.629C481.805 209.939 487.254 204.491 493.943 204.491C500.632 204.491 506.08 209.939 506.08 216.629V270.574H497.989V216.629C497.989 214.401 496.171 212.583 493.943 212.583C491.715 212.583 489.897 214.401 489.897 216.629V275.968Z" fill="black"/>
<path d="M522.264 270.574H514.172V248.996C514.172 246.768 512.354 244.95 510.126 244.95C507.898 244.95 506.081 246.768 506.081 248.996V254.39H497.989V248.996C497.989 242.306 503.437 236.858 510.126 236.858C516.816 236.858 522.264 242.306 522.264 248.996V270.574Z" fill="black"/>
<path d="M538.448 270.574H530.356V254.39C530.356 252.162 528.538 250.344 526.31 250.344C524.082 250.344 522.264 252.162 522.264 254.39V258.436H514.172V254.39C514.172 247.701 519.621 242.252 526.31 242.252C532.999 242.252 538.448 247.701 538.448 254.39V270.574Z" fill="black"/>
<path d="M529.007 317.776H499.138C481.681 317.776 463 307.499 462.93 278.644C462.91 275.798 463.456 272.977 464.535 270.344C465.615 267.711 467.207 265.319 469.22 263.307C471.179 261.331 473.511 259.763 476.08 258.695C478.65 257.627 481.407 257.081 484.189 257.087H485.851V265.179H484.189C480.705 265.179 477.419 266.544 474.949 269.02C473.691 270.281 472.695 271.779 472.02 273.427C471.345 275.075 471.004 276.841 471.016 278.622C471.086 307.445 492.551 309.684 499.132 309.684H529.002C533.65 309.678 538.106 307.829 541.392 304.542C544.679 301.256 546.528 296.8 546.534 292.152V259.785C546.496 258.738 546.053 257.747 545.299 257.02C544.545 256.293 543.538 255.886 542.491 255.886C541.443 255.886 540.437 256.293 539.683 257.02C538.928 257.747 538.486 258.738 538.447 259.785V263.83H530.356V259.785C530.356 253.095 535.804 247.647 542.493 247.647C549.183 247.647 554.631 253.095 554.631 259.785V292.152C554.622 298.945 551.92 305.457 547.116 310.261C542.313 315.065 535.8 317.767 529.007 317.776ZM514.906 231.954L508.648 226.835C511.376 223.509 512.854 219.333 512.824 215.032C512.824 204.62 504.354 196.151 493.943 196.151C483.531 196.151 475.062 204.62 475.062 215.032C475.062 219.412 476.508 223.496 479.237 226.835L472.98 231.954C469.087 227.172 466.964 221.193 466.97 215.026C466.97 200.154 479.07 188.054 493.943 188.054C508.815 188.054 520.915 200.154 520.915 215.026C520.921 221.193 518.799 227.172 514.906 231.954Z" fill="black"/>
<g clip-path="url(#clip0_256_82)">
<path d="M971.276 140.496H962.147V84.5764H971.276V140.496Z" fill="#C0C0C0"/>
<mask id="mask0_256_82" style="mask-type:luminance" maskUnits="userSpaceOnUse" x="889" y="0" width="157" height="156">
<path d="M889.718 0.127075H1045.53V155.94H889.718V0.127075Z" fill="white"/>
</mask>
<g mask="url(#mask0_256_82)">
<path d="M1035.64 84.6721H899.609C895.407 84.6721 892 81.2658 892 77.0641V17.8542C892 13.6524 895.407 10.2461 899.609 10.2461H1035.64C1039.84 10.2461 1043.25 13.6524 1043.25 17.8542V77.0641C1043.25 81.2658 1039.84 84.6721 1035.64 84.6721Z" fill="#AF8FCA"/>
<path d="M987.253 145.821H946.17C943.229 145.821 940.844 143.437 940.844 140.495C940.844 137.554 943.229 135.17 946.17 135.17H987.253C990.195 135.17 992.579 137.554 992.579 140.495C992.579 143.437 990.195 145.821 987.253 145.821Z" fill="#838383"/>
<path d="M1035.64 10.2461H1024.46C1028.66 10.2461 1032.06 13.6524 1032.06 17.8542V77.0641C1032.06 81.2658 1028.66 84.6721 1024.46 84.6721H1035.64C1039.84 84.6721 1043.25 81.2658 1043.25 77.0641V17.8542C1043.25 13.6524 1039.84 10.2461 1035.64 10.2461Z" fill="#6C468D"/>
<path d="M962.147 104.355H971.276V84.5762H962.147V104.355Z" fill="#ACACAC"/>
<path d="M984.058 95.728H949.365C948.72 95.728 948.1 95.4715 947.644 95.015C947.187 94.5584 946.931 93.9391 946.931 93.2934V72.2952C946.931 71.6495 947.187 71.0303 947.644 70.5737C948.1 70.1171 948.72 69.8606 949.365 69.8606H984.058C984.704 69.8606 985.323 70.1171 985.78 70.5737C986.236 71.0303 986.493 71.6495 986.493 72.2952V93.2934C986.493 93.9391 986.236 94.5584 985.78 95.015C985.323 95.4715 984.704 95.728 984.058 95.728Z" fill="#E2E2E2"/>
<path d="M987.253 135.17H976.902C979.843 135.17 982.227 137.554 982.227 140.495C982.227 143.437 979.843 145.821 976.902 145.821H987.253C990.195 145.821 992.579 143.437 992.579 140.495C992.579 137.554 990.195 135.17 987.253 135.17Z" fill="#5A5A5A"/>
<path d="M940.556 55.35C939.046 55.35 937.817 54.1147 937.817 52.5968C937.817 51.9914 937.577 51.4109 937.149 50.9828C936.72 50.5548 936.14 50.3143 935.535 50.3143C934.929 50.3143 934.349 50.5548 933.921 50.9828C933.493 51.4109 933.252 51.9914 933.252 52.5968C933.252 56.6318 936.529 59.9148 940.556 59.9148C944.583 59.9148 947.86 56.6318 947.86 52.5968V52.5076C947.86 48.4726 944.583 45.1898 940.556 45.1898C939.046 45.1898 937.817 43.9549 937.817 42.4366V42.3475C937.817 40.8295 939.046 39.5946 940.556 39.5946C942.066 39.5946 943.295 40.8295 943.295 42.3475C943.295 42.9528 943.535 43.5334 943.963 43.9614C944.391 44.3894 944.972 44.6299 945.577 44.6299C946.183 44.6299 946.763 44.3894 947.191 43.9614C947.619 43.5334 947.86 42.9528 947.86 42.3475C947.86 38.3125 944.583 35.0297 940.556 35.0297C936.529 35.0297 933.252 38.3125 933.252 42.3475V42.4366C933.252 46.472 936.529 49.7547 940.556 49.7547C942.066 49.7547 943.295 50.9896 943.295 52.5076V52.5968C943.295 54.1147 942.066 55.35 940.556 55.35Z" fill="black"/>
<path d="M908.663 43.6154C908.663 44.4837 907.961 45.19 907.099 45.19H903.185V39.5947H907.099C907.961 39.5947 908.663 40.3011 908.663 41.1693V43.6154ZM913.227 43.6154V41.1693C913.227 37.784 910.478 35.0299 907.099 35.0299H902.317C900.279 35.0299 898.62 36.6903 898.62 38.7311V47.4636L898.62 47.4724V57.6325C898.62 58.2379 898.86 58.8184 899.288 59.2464C899.716 59.6745 900.297 59.9149 900.902 59.9149C901.508 59.9149 902.088 59.6745 902.516 59.2464C902.944 58.8184 903.185 58.2379 903.185 57.6325V49.7548H905.118L907.719 58.2975C907.895 58.8766 908.294 59.3619 908.829 59.6467C909.363 59.9315 909.988 59.9924 910.567 59.816C911.146 59.6397 911.632 59.2405 911.916 58.7063C912.201 58.1721 912.262 57.5467 912.086 56.9676L909.709 49.162C911.785 48.1775 913.227 46.0646 913.227 43.6154Z" fill="black"/>
<path d="M918.586 59.9148H927.716C928.321 59.9148 928.902 59.6743 929.33 59.2463C929.758 58.8183 929.998 58.2377 929.998 57.6324C929.998 57.027 929.758 56.4465 929.33 56.0185C928.902 55.5904 928.321 55.35 927.716 55.35H920.869V51.2516H927.716C928.321 51.2516 928.902 51.0112 929.33 50.5831C929.758 50.1551 929.998 49.5746 929.998 48.9692C929.998 48.3639 929.758 47.7834 929.33 47.3553C928.902 46.9273 928.321 46.6868 927.716 46.6868H920.869V39.5946H927.716C928.321 39.5946 928.902 39.3541 929.33 38.9261C929.758 38.498 929.998 37.9175 929.998 37.3122C929.998 36.7068 929.758 36.1263 929.33 35.6982C928.902 35.2702 928.321 35.0297 927.716 35.0297H918.586C917.981 35.0297 917.4 35.2702 916.972 35.6982C916.544 36.1263 916.304 36.7068 916.304 37.3122V57.6324C916.304 58.2377 916.544 58.8183 916.972 59.2463C917.4 59.6743 917.981 59.9148 918.586 59.9148Z" fill="black"/>
<path d="M962.975 39.5946C963.58 39.5946 964.161 39.3541 964.589 38.9261C965.017 38.498 965.257 37.9175 965.257 37.3122C965.257 36.7068 965.017 36.1263 964.589 35.6982C964.161 35.2702 963.58 35.0297 962.975 35.0297H953.845C953.24 35.0297 952.66 35.2702 952.231 35.6982C951.803 36.1263 951.563 36.7068 951.563 37.3122V57.6324C951.563 58.2377 951.803 58.8183 952.231 59.2463C952.66 59.6743 953.24 59.9148 953.845 59.9148H962.975C963.58 59.9148 964.161 59.6743 964.589 59.2463C965.017 58.8183 965.257 58.2377 965.257 57.6324C965.257 57.027 965.017 56.4465 964.589 56.0185C964.161 55.5904 963.58 55.35 962.975 55.35H956.128V51.252H962.975C963.58 51.252 964.161 51.0115 964.589 50.5834C965.017 50.1554 965.257 49.5749 965.257 48.9695C965.257 48.3642 965.017 47.7837 964.589 47.3556C964.161 46.9276 963.58 46.6871 962.975 46.6871H956.128V39.5946H962.975Z" fill="black"/>
<path d="M978.558 43.6154C978.558 44.4837 977.856 45.19 976.994 45.19H973.08V39.5947H976.994C977.856 39.5947 978.558 40.3011 978.558 41.1693V43.6154ZM983.123 43.6154V41.1693C983.123 37.784 980.373 35.0299 976.994 35.0299H972.213C970.174 35.0299 968.515 36.6903 968.515 38.7311V47.4636L968.515 47.4724V57.6325C968.515 58.2379 968.756 58.8184 969.184 59.2464C969.612 59.6745 970.192 59.9149 970.798 59.9149C971.403 59.9149 971.983 59.6745 972.411 59.2464C972.84 58.8184 973.08 58.2379 973.08 57.6325V49.7548H975.013L977.614 58.2975C977.79 58.8766 978.19 59.3619 978.724 59.6467C979.258 59.9315 979.883 59.9924 980.463 59.816C981.042 59.6397 981.527 59.2405 981.812 58.7063C982.097 58.1721 982.157 57.5467 981.981 56.9676L979.604 49.162C981.68 48.1775 983.123 46.0646 983.123 43.6154Z" fill="black"/>
<path d="M993.647 59.9148C994.13 59.9148 994.601 59.7615 994.991 59.4771C995.382 59.1927 995.672 58.7918 995.82 58.332L1002.36 38.0115C1002.45 37.7262 1002.49 37.4256 1002.47 37.1268C1002.44 36.8281 1002.36 36.537 1002.22 36.2703C1002.08 36.0036 1001.9 35.7665 1001.67 35.5724C1001.44 35.3783 1001.18 35.2312 1000.89 35.1393C1000.6 35.0474 1000.3 35.0126 1000.01 35.0369C999.706 35.0612 999.415 35.1441 999.148 35.2809C998.882 35.4177 998.645 35.6057 998.451 35.8342C998.256 36.0627 998.109 36.3272 998.018 36.6125L993.647 50.1856L989.277 36.6125C989.186 36.3258 989.04 36.0597 988.846 35.8298C988.652 35.5998 988.415 35.4104 988.148 35.2724C987.88 35.1344 987.588 35.0506 987.289 35.0259C986.989 35.0011 986.687 35.0357 986.401 35.1279C986.115 35.2201 985.85 35.3679 985.621 35.5629C985.392 35.7579 985.203 35.9963 985.067 36.2642C984.93 36.5322 984.848 36.8245 984.825 37.1244C984.802 37.4242 984.838 37.7257 984.932 38.0115L991.475 58.332C991.623 58.7918 991.913 59.1927 992.303 59.4771C992.694 59.7615 993.164 59.9148 993.647 59.9148Z" fill="black"/>
<path d="M1016.45 39.5946C1017.05 39.5946 1017.63 39.3541 1018.06 38.9261C1018.49 38.498 1018.73 37.9175 1018.73 37.3122C1018.73 36.7068 1018.49 36.1263 1018.06 35.6982C1017.63 35.2702 1017.05 35.0297 1016.45 35.0297H1007.32C1006.71 35.0297 1006.13 35.2702 1005.7 35.6982C1005.27 36.1263 1005.03 36.7068 1005.03 37.3122V57.6324C1005.03 58.2377 1005.27 58.8183 1005.7 59.2463C1006.13 59.6743 1006.71 59.9148 1007.32 59.9148H1016.45C1017.05 59.9148 1017.63 59.6743 1018.06 59.2463C1018.49 58.8183 1018.73 58.2377 1018.73 57.6324C1018.73 57.027 1018.49 56.4465 1018.06 56.0185C1017.63 55.5904 1017.05 55.35 1016.45 55.35H1009.6V51.252H1016.45C1017.05 51.252 1017.63 51.0115 1018.06 50.5834C1018.49 50.1554 1018.73 49.5749 1018.73 48.9695C1018.73 48.3642 1018.49 47.7837 1018.06 47.3556C1017.63 46.9276 1017.05 46.6871 1016.45 46.6871H1009.6V39.5946H1016.45Z" fill="black"/>
<path d="M1026.59 39.7896C1029.72 40.5407 1032.06 43.3694 1032.06 46.7343V48.2099C1032.06 51.5748 1029.72 54.4035 1026.59 55.1546V39.7896ZM1036.63 48.2099V46.7343C1036.63 40.2802 1031.38 35.0294 1024.92 35.0294C1023.32 35.0294 1022.02 36.3316 1022.02 37.9324V57.0122C1022.02 58.6126 1023.32 59.9148 1024.92 59.9148C1031.38 59.9148 1036.63 54.664 1036.63 48.2099Z" fill="black"/>
<path d="M1035.64 7.96356H919.998C919.393 7.96356 918.812 8.20403 918.384 8.63206C917.956 9.0601 917.716 9.64064 917.716 10.246C917.716 10.8513 917.956 11.4319 918.384 11.8599C918.812 12.2879 919.393 12.5284 919.998 12.5284H1035.64C1038.58 12.5284 1040.97 14.9176 1040.97 17.854V62.4263C1040.97 63.0317 1041.21 63.6122 1041.63 64.0402C1042.06 64.4683 1042.64 64.7087 1043.25 64.7087C1043.85 64.7087 1044.43 64.4683 1044.86 64.0402C1045.29 63.6122 1045.53 63.0317 1045.53 62.4263V17.854C1045.53 12.4006 1041.09 7.96356 1035.64 7.96356Z" fill="black"/>
<path d="M984.21 84.6721V93.2938C984.21 93.3342 984.194 93.3729 984.166 93.4014C984.137 93.43 984.098 93.446 984.058 93.446C947.094 93.446 949.213 93.5315 949.213 93.2938V72.2956C949.213 72.2552 949.229 72.2165 949.258 72.188C949.286 72.1594 949.325 72.1434 949.365 72.1434H984.058C984.098 72.1434 984.137 72.1594 984.166 72.188C984.194 72.2165 984.21 72.2552 984.21 72.2956V84.6721ZM964.429 98.0108H968.994V132.887H964.429V98.0108ZM987.253 137.452C988.931 137.452 990.297 138.817 990.297 140.495C990.297 142.173 988.931 143.539 987.253 143.539H946.17C944.492 143.539 943.127 142.173 943.127 140.495C943.127 138.817 944.492 137.452 946.17 137.452H987.253ZM1043.25 70.7953C1042.64 70.7953 1042.06 71.0357 1041.63 71.4638C1041.21 71.8918 1040.97 72.4724 1040.97 73.0777V77.064C1040.97 80.0004 1038.58 82.3896 1035.64 82.3896H988.775V72.2956C988.775 69.6945 986.659 67.5786 984.058 67.5786H949.365C946.764 67.5786 944.648 69.6945 944.648 72.2956V82.3896H899.608C896.672 82.3896 894.283 80.0004 894.283 77.064V17.8541C894.283 14.9177 896.672 12.5285 899.608 12.5285H909.347C909.952 12.5285 910.533 12.288 910.961 11.86C911.389 11.4319 911.629 10.8514 911.629 10.2461C911.629 9.64072 911.389 9.06018 910.961 8.63214C910.533 8.2041 909.952 7.96364 909.347 7.96364H899.608C894.155 7.96364 889.718 12.4007 889.718 17.8541V77.064C889.718 82.5175 894.155 86.9545 899.608 86.9545H944.648V93.2938C944.648 95.8946 946.764 98.0108 949.365 98.0108H959.864V132.887H946.17C941.975 132.887 938.562 136.3 938.562 140.495C938.562 144.691 941.975 148.104 946.17 148.104H987.253C991.448 148.104 994.861 144.691 994.861 140.495C994.861 136.3 991.448 132.887 987.253 132.887H973.559V98.0108H984.058C986.659 98.0108 988.775 95.8946 988.775 93.2938V86.9545H1035.64C1041.09 86.9545 1045.53 82.5175 1045.53 77.064V73.0777C1045.53 72.4724 1045.29 71.8918 1044.86 71.4638C1044.43 71.0357 1043.85 70.7953 1043.25 70.7953Z" fill="black"/>
</g>
</g>
<g clip-path="url(#clip1_256_82)">
<path d="M106.186 107.654L109.467 104.372L114.849 109.754L101.68 122.923L96.2762 117.564L99.6233 114.217L106.186 107.654Z" fill="#C1CFE8"/>
<path d="M137.819 132.723L124.693 145.849L101.68 122.923L114.849 109.754L137.819 132.723Z" fill="#733AA5"/>
<path d="M106.186 107.654L99.6232 114.216L92.1198 106.713C94.4998 104.727 96.6963 102.53 98.6826 100.15L106.186 107.654Z" fill="#8394B2"/>
<path d="M96.9763 27.7189H94.0668C92.9075 27.7223 91.7966 28.1844 90.9769 29.0041C90.1571 29.8239 89.695 30.9347 89.6916 32.0941V35.9442C87.7196 33.7091 85.5202 31.6856 83.1288 29.9065C75.8348 24.4107 66.9929 21.3562 57.862 21.1779C56.9217 18.8177 55.4741 16.693 53.6218 14.954C51.7695 13.2151 49.5576 11.9045 47.1428 11.115C50.3531 10.5168 53.6119 10.2165 56.8776 10.2181C64.4075 10.2087 71.8577 11.7588 78.759 14.7708C85.6602 17.7828 91.8629 22.1914 96.9763 27.7189ZM33.2296 101.682C39.6782 105.834 47.1057 108.217 54.7664 108.591C62.4271 108.965 70.0514 107.317 76.8739 103.813C83.6964 100.308 89.4769 95.071 93.6351 88.6262C97.7933 82.1814 100.183 74.756 100.564 67.0957H111.524C111.055 79.2387 106.534 90.8753 98.6826 100.15C96.6963 102.53 94.4999 104.727 92.1198 106.713C86.4599 111.492 79.8882 115.072 72.8032 117.235C65.7182 119.397 58.2677 120.098 50.9037 119.295C43.5396 118.491 36.4156 116.2 29.9638 112.56C23.5119 108.92 17.8668 104.008 13.3708 98.1203C8.87484 92.233 5.62176 85.4936 3.80893 78.3112C1.9961 71.1287 1.66131 63.6528 2.82487 56.337C3.98844 49.0212 6.62609 42.018 10.5778 35.7524C14.5296 29.4867 19.713 24.0892 25.8137 19.8873C24.6626 22.2289 24.0639 24.8033 24.0636 27.4126C24.0533 29.8045 24.5842 32.1678 25.6168 34.3254C22.0298 37.9816 19.1125 42.2392 16.9976 46.9041C15.2827 50.6761 14.1258 54.6776 13.5631 58.7828C12.7529 64.4609 13.0701 70.2431 14.4965 75.7986C15.9229 81.354 18.4305 86.5738 21.876 91.1593C24.9867 95.3302 28.8347 98.8964 33.2296 101.682ZM126.881 40.8445L109.38 58.3453L100.63 49.5949L105.005 45.2197L109.38 49.5949L122.506 36.4693L126.881 40.8445Z" fill="#EDF4FA"/>
<path d="M137.819 32.094V62.7204C137.815 63.8797 137.353 64.9905 136.533 65.8103C135.714 66.63 134.603 67.0921 133.444 67.0956H126.881L118.13 75.846V67.0956H94.0667C92.9074 67.0921 91.7966 66.63 90.9768 65.8103C90.1571 64.9905 89.695 63.8797 89.6915 62.7204V32.094C89.695 30.9346 90.1571 29.8238 90.9768 29.004C91.7966 28.1843 92.9074 27.7222 94.0667 27.7188H133.444C134.603 27.7222 135.714 28.1843 136.533 29.004C137.353 29.8238 137.815 30.9346 137.819 32.094ZM109.38 58.3452L126.881 40.8444L122.506 36.4692L109.38 49.5948L105.005 45.2196L100.63 49.5948L109.38 58.3452Z" fill="#733AA5"/>
<path d="M41.5644 34.2816C45.1889 34.2816 48.1272 31.3433 48.1272 27.7188C48.1272 24.0943 45.1889 21.156 41.5644 21.156C37.9399 21.156 35.0016 24.0943 35.0016 27.7188C35.0016 31.3433 37.9399 34.2816 41.5644 34.2816Z" fill="#96272E"/>
<path d="M57.862 21.1778C58.6653 23.1578 59.074 25.2757 59.0652 27.4125C59.0652 39.4443 46.8147 42.8788 46.8147 53.1824C46.8147 54.5748 46.2615 55.9103 45.2769 56.8949C44.2923 57.8795 42.9569 58.4326 41.5644 58.4326C40.172 58.4326 38.8366 57.8795 37.8519 56.8949C36.8673 55.9103 36.3142 54.5748 36.3142 53.1824C36.3142 45.1758 28.8982 41.3037 25.6168 34.3253C24.5843 32.1677 24.0533 29.8044 24.0636 27.4125C24.0639 24.8032 24.6626 22.2288 25.8137 19.8871C27.2793 16.9694 29.53 14.5186 32.3126 12.8104C35.0953 11.1022 38.2993 10.2043 41.5644 10.2179C43.4531 10.2115 45.3302 10.5145 47.1209 11.1148H47.1428C49.5577 11.9044 51.7695 13.215 53.6218 14.9539C55.4742 16.6928 56.9217 18.8176 57.862 21.1778ZM48.1272 27.7187C48.1272 26.4207 47.7423 25.1519 47.0212 24.0726C46.3001 22.9934 45.2751 22.1522 44.0759 21.6555C42.8767 21.1588 41.5571 21.0288 40.2841 21.282C39.011 21.5353 37.8416 22.1603 36.9238 23.0781C36.006 23.9959 35.381 25.1653 35.1277 26.4384C34.8745 27.7114 35.0045 29.031 35.5012 30.2302C35.9979 31.4294 36.8391 32.4544 37.9183 33.1755C38.9976 33.8966 40.2664 34.2815 41.5644 34.2815C43.305 34.2815 44.9743 33.5901 46.205 32.3593C47.4358 31.1286 48.1272 29.4593 48.1272 27.7187Z" fill="#E63B47"/>
<path d="M33.9078 79.1273L21.876 91.1591C18.4306 86.5736 15.9229 81.3538 14.4965 75.7984C13.0701 70.2429 12.753 64.4607 13.5632 58.7826L33.9078 79.1273ZM83.1288 29.9063L41.5644 71.4707L16.9977 46.9039C19.1125 42.239 22.0299 37.9814 25.6168 34.3252C28.8982 41.3037 36.3142 45.1757 36.3142 53.1823C36.3142 54.5748 36.8673 55.9102 37.852 56.8948C38.8366 57.8794 40.172 58.4326 41.5644 58.4326C42.9569 58.4326 44.2923 57.8794 45.2769 56.8948C46.2615 55.9102 46.8147 54.5748 46.8147 53.1823C46.8147 42.8787 59.0652 39.4442 59.0652 27.4124C59.074 25.2757 58.6653 23.1578 57.8621 21.1777C66.993 21.356 75.8349 24.4105 83.1288 29.9063Z" fill="#01A84E"/>
<path d="M52.5024 82.4087L74.8815 104.788C68.2323 107.792 60.9361 109.082 53.66 108.539C46.3838 107.996 39.3596 105.639 33.2296 101.681L52.5024 82.4087Z" fill="#4989F4"/>
<path d="M94.0668 67.0955H100.564C100.038 77.9304 95.4905 88.1798 87.8103 95.8405L63.4404 71.4707L89.6916 45.2195V62.7203C89.6951 63.8796 90.1572 64.9904 90.9769 65.8102C91.7967 66.63 92.9075 67.092 94.0668 67.0955Z" fill="#01A84E"/>
<path d="M89.6916 35.944V45.2194L63.4404 71.4706L87.8103 95.8405C84.0788 99.5822 79.698 102.614 74.8815 104.788L52.5024 82.4086L33.2296 101.681C28.8347 98.8962 24.9867 95.33 21.876 91.159L33.9078 79.1272L13.5631 58.7826C14.1258 54.6774 15.2827 50.6759 16.9976 46.9039L41.5644 71.4706L83.1288 29.9062C85.5202 31.6854 87.7197 33.7089 89.6916 35.944Z" fill="#5C6979"/>
<path d="M83.1288 29.9064C85.5202 31.6856 87.7196 33.7091 89.6916 35.9442V32.094C89.6963 31.423 89.8574 30.7624 90.1619 30.1645C81.2169 21.5645 69.2862 16.7671 56.8776 16.7808C56.3526 16.7808 55.8341 16.8027 55.3156 16.8202C56.376 18.1383 57.2343 19.6069 57.862 21.1779C66.9929 21.3562 75.8348 24.4106 83.1288 29.9064ZM8.75039 64.908C8.77747 77.4646 13.711 89.5135 22.498 98.4833C31.2851 107.453 43.2299 112.633 55.7833 112.919C68.3368 113.204 80.5047 108.572 89.6904 100.011C98.8762 91.4502 104.352 79.638 104.95 67.0956H100.564C100.189 74.7589 97.8038 82.1885 93.647 88.6372C89.4902 95.086 83.7087 100.327 76.8839 103.832C70.0592 107.338 62.4317 108.984 54.7686 108.607C47.1054 108.229 39.6768 105.841 33.2296 101.682C28.8347 98.8963 24.9867 95.3301 21.876 91.1592C18.4305 86.5737 15.9229 81.3539 14.4965 75.7985C13.0701 70.243 12.7529 64.4609 13.5631 58.7827C14.1258 54.6775 15.2827 50.6761 16.9976 46.904C19.1125 42.2391 22.0298 37.9816 25.6168 34.3253C24.9045 32.8235 24.4314 31.2196 24.2145 29.5717C19.3328 34.0715 15.4378 39.5354 12.776 45.6178C10.1142 51.7001 8.74341 58.2687 8.75039 64.908Z" fill="#C1CFE8"/>
<path d="M29.7514 56.6606C29.767 57.9161 30.2322 59.1245 31.0624 60.0665C31.8926 61.0085 33.0329 61.6218 34.2765 61.7951C35.5201 61.9684 36.7847 61.6903 37.8408 61.0111C38.897 60.332 39.6747 59.2969 40.0331 58.0935C38.9674 57.7838 38.03 57.1387 37.36 56.254C36.69 55.3693 36.3233 54.292 36.3142 53.1823C36.3142 45.1757 28.8982 41.3036 25.6168 34.3252C23.7552 36.2232 22.0711 38.2874 20.5853 40.492C24.2189 45.9085 29.7514 49.7434 29.7514 56.6606ZM83.1288 67.0954C83.1323 68.2547 83.5943 69.3656 84.4141 70.1853C85.2339 71.0051 86.3447 71.4672 87.504 71.4706H100.12C100.339 70.0205 100.485 68.5603 100.557 67.0954H94.0668C92.9075 67.092 91.7967 66.6299 90.9769 65.8101C90.1571 64.9904 89.6951 63.8795 89.6916 62.7202V45.2194L83.1288 51.7822V67.0954Z" fill="#017336"/>
<path d="M86.082 32.3521C85.2235 32.6471 84.478 33.2019 83.9488 33.9396C83.4196 34.6773 83.1331 35.5613 83.1288 36.4691V51.7823L89.6916 45.2195V35.9441C88.5609 34.676 87.3556 33.4765 86.082 32.3521Z" fill="#5C6979"/>
<path d="M86.082 32.3522C87.3556 33.4766 88.561 34.6761 89.6916 35.9442V32.094H87.504C87.0189 32.0998 86.5382 32.1871 86.082 32.3522ZM104.95 67.0956H100.564C100.492 68.5604 100.346 70.0207 100.126 71.4708H111.169C111.342 70.027 111.471 68.5701 111.53 67.0956H104.95ZM24.7046 31.8556C24.4847 31.1083 24.3209 30.3456 24.2145 29.5739C24.1163 28.8576 24.0659 28.1355 24.0636 27.4125C24.0639 24.8033 24.6626 22.2289 25.8137 19.8872C23.0728 21.782 20.5101 23.9223 18.1571 26.2816C17.7281 27.7806 17.5072 29.3316 17.5008 30.8908C17.4955 32.6573 17.7868 34.4121 18.3627 36.082C18.5613 36.6682 18.7921 37.2429 19.054 37.8036C19.497 38.7366 20.0088 39.6353 20.5853 40.4922C22.0711 38.2876 23.7552 36.2234 25.6168 34.3254C25.3083 33.6582 25.0445 32.9712 24.8271 32.269C24.7833 32.1334 24.7439 31.9934 24.7046 31.8556Z" fill="#8394B2"/>
<path d="M100.717 113.123L99.6233 114.216L96.2762 117.563L101.68 122.923L106.099 118.504L100.717 113.123Z" fill="#A8B7D4"/>
<path d="M133.444 128.348L127.786 134.005C126.966 134.826 125.853 135.286 124.693 135.286C123.533 135.286 122.42 134.826 121.6 134.005L106.099 118.504L101.68 122.923L124.693 145.849L137.819 132.724L133.444 128.348Z" fill="#401B60"/>
<path d="M97.8009 104.926L100.63 102.097L98.6826 100.15C96.6963 102.53 94.4998 104.727 92.1198 106.713L99.6232 114.216L101.811 112.029L97.8009 108.019C97.3908 107.609 97.1605 107.052 97.1605 106.472C97.1605 105.892 97.3908 105.336 97.8009 104.926Z" fill="#5C6979"/>
<path d="M113.027 74.0062L108.706 73.3105C108.487 74.7106 108.194 76.1238 107.853 77.5107L112.101 78.5564C112.471 77.0528 112.78 75.5348 113.027 74.0062ZM20.4344 27.1062L17.4002 23.9561C16.0876 25.2118 14.8341 26.5484 13.6506 27.931L16.9758 30.7748C18.0701 29.4981 19.2243 28.2738 20.4344 27.1062ZM93.2815 21.2019C83.0579 12.694 70.1782 8.03388 56.8776 8.03036V12.4056C69.1535 12.4087 81.0409 16.7097 90.477 24.562L93.2815 21.2019ZM34.1266 53.189C34.1266 55.1616 34.9102 57.0535 36.3051 58.4483C37.6999 59.8432 39.5918 60.6268 41.5644 60.6268C43.537 60.6268 45.4289 59.8432 46.8238 58.4483C48.2186 57.0535 49.0022 55.1616 49.0022 53.189C49.0022 49.0325 51.4392 46.1296 54.2525 42.7694C57.5339 38.8711 61.2528 34.4566 61.2528 27.4059C61.2528 22.1842 59.1785 17.1764 55.4862 13.4841C51.7939 9.79184 46.7861 7.71753 41.5644 7.71753C36.3427 7.71753 31.3349 9.79184 27.6426 13.4841C23.9503 17.1764 21.876 22.1842 21.876 27.4059C21.876 34.45 25.5949 38.8711 28.8763 42.7694C31.6896 46.1296 34.1266 49.0282 34.1266 53.189ZM41.5644 12.4056C45.5828 12.3688 49.4518 13.9274 52.3225 16.7395C55.1933 19.5516 56.8314 23.3876 56.8776 27.4059C56.8776 32.8574 53.979 36.3051 50.9098 39.9562C47.8406 43.6073 44.627 47.4334 44.627 53.189C44.627 54.0012 44.3044 54.7802 43.73 55.3546C43.1557 55.929 42.3767 56.2516 41.5644 56.2516C40.7521 56.2516 39.9732 55.929 39.3988 55.3546C38.8244 54.7802 38.5018 54.0012 38.5018 53.189C38.5018 47.4334 35.3079 43.6314 32.219 39.9562C29.1301 36.281 26.2512 32.8574 26.2512 27.4059C26.2974 23.3876 27.9355 19.5516 30.8063 16.7395C33.677 13.9274 37.546 12.3688 41.5644 12.4056Z" fill="black"/>
<path d="M41.5644 36.4691C43.295 36.4691 44.9868 35.9559 46.4258 34.9944C47.8648 34.0328 48.9864 32.6662 49.6487 31.0673C50.311 29.4684 50.4843 27.709 50.1466 26.0115C49.809 24.3141 48.9756 22.755 47.7518 21.5312C46.5281 20.3074 44.9689 19.474 43.2715 19.1364C41.5741 18.7988 39.8147 18.9721 38.2157 19.6344C36.6168 20.2966 35.2502 21.4182 34.2887 22.8572C33.3272 24.2962 32.814 25.988 32.814 27.7187C32.814 30.0394 33.7359 32.2651 35.3769 33.9061C37.0179 35.5472 39.2436 36.4691 41.5644 36.4691ZM41.5644 23.3435C42.4297 23.3435 43.2756 23.6001 43.9951 24.0808C44.7146 24.5616 45.2754 25.2449 45.6065 26.0443C45.9377 26.8438 46.0243 27.7235 45.8555 28.5722C45.6867 29.4209 45.27 30.2005 44.6581 30.8124C44.0462 31.4243 43.2666 31.841 42.4179 32.0098C41.5692 32.1786 40.6895 32.092 39.8901 31.7608C39.0906 31.4297 38.4073 30.8689 37.9265 30.1494C37.4458 29.4299 37.1892 28.584 37.1892 27.7187C37.1892 26.5583 37.6501 25.4454 38.4706 24.6249C39.2912 23.8044 40.404 23.3435 41.5644 23.3435ZM111.01 102.821C110.599 102.411 110.043 102.181 109.463 102.181C108.883 102.181 108.327 102.411 107.916 102.821L106.182 104.556L101.588 99.962C105.593 94.9153 108.701 89.2175 110.776 83.1174L106.632 81.7174C104.532 87.9553 101.265 93.7375 97.0069 98.7566C95.1012 101.039 92.994 103.145 90.711 105.05C81.0221 113.224 68.7033 117.616 56.0288 117.416C43.3544 117.216 31.1802 112.437 21.754 103.962C12.3278 95.4871 6.28617 83.8878 4.74448 71.3058C3.20278 58.7239 6.26516 46.009 13.3662 35.5087L9.74355 33.0542C2.13295 44.2792 -1.21323 57.8555 0.309243 71.3315C1.83172 84.8076 8.12251 97.2951 18.0456 106.539C27.9688 115.783 40.8702 121.175 54.4201 121.74C67.9701 122.305 81.2756 118.006 91.9339 109.62L96.5278 114.214L94.7274 116.012C94.5237 116.216 94.3621 116.457 94.2518 116.723C94.1415 116.989 94.0847 117.273 94.0847 117.561C94.0847 117.849 94.1415 118.134 94.2518 118.4C94.3621 118.665 94.5237 118.907 94.7274 119.11L123.149 147.398C123.559 147.807 124.115 148.037 124.694 148.037C125.274 148.037 125.83 147.807 126.24 147.398L139.365 134.272C139.776 133.862 140.006 133.306 140.006 132.726C140.006 132.146 139.776 131.589 139.365 131.179L111.01 102.821ZM111.756 109.754L101.669 119.841L99.3695 117.555L109.463 107.461L111.756 109.754ZM95.2831 106.783C96.495 105.676 97.6515 104.519 98.7526 103.313L103.088 107.649L99.6189 111.119L95.2831 106.783ZM124.693 142.758L104.771 122.927L114.849 112.847L134.725 132.723L124.693 142.758Z" fill="black"/>
<path d="M133.444 25.5311H94.0667C92.3262 25.5311 90.6569 26.2226 89.4261 27.4533C88.1954 28.6841 87.5039 30.3534 87.5039 32.0939V44.3139L61.8937 69.9241C61.4836 70.3343 61.2532 70.8907 61.2532 71.4707C61.2532 72.0508 61.4836 72.6071 61.8937 73.0174L84.6447 95.7684C81.8376 98.3016 78.6952 100.436 75.3059 102.112L54.0468 80.8534C53.6365 80.4433 53.0802 80.2129 52.5001 80.2129C51.9201 80.2129 51.3637 80.4433 50.9535 80.8534L32.9758 98.8311C29.9225 96.7083 27.1779 94.1729 24.8204 91.297L35.4522 80.6652C35.8623 80.255 36.0927 79.6987 36.0927 79.1186C36.0927 78.5385 35.8623 77.9822 35.4522 77.572L15.9103 58.0367C16.3103 55.5675 16.9379 53.1406 17.7851 50.787L40.0177 73.0174C40.4279 73.4275 40.9843 73.6579 41.5643 73.6579C42.1444 73.6579 42.7007 73.4275 43.111 73.0174L84.6754 31.453C84.897 31.2314 85.0684 30.9647 85.1779 30.6711C85.2875 30.3775 85.3328 30.0638 85.3106 29.7512C85.2884 29.4386 85.1993 29.1344 85.0493 28.8593C84.8993 28.5841 84.692 28.3443 84.4413 28.1563C78.374 23.5954 71.2675 20.6154 63.7619 19.4846L63.1056 23.8095C69.045 24.7059 74.7182 26.8841 79.7314 30.1929L41.5643 68.3775L19.6774 46.5015C20.7952 44.212 22.1206 42.0298 23.6369 39.9824L20.1368 37.3573C18.1121 40.0467 16.3888 42.9502 14.9981 46.0158C13.1996 49.9762 11.9845 54.1763 11.3908 58.4852C10.5425 64.4462 10.8773 70.5161 12.3761 76.3477C13.8749 82.1793 16.5084 87.6584 20.1259 92.4717C23.388 96.8518 27.426 100.596 32.0395 103.519C38.3166 107.561 45.4845 110.011 52.9222 110.657C60.3599 111.304 67.843 110.127 74.7232 107.228C81.6034 104.33 87.6731 99.7979 92.4065 94.0245C97.1399 88.2512 100.394 81.4107 101.887 74.0959L97.5997 73.2208C96.1249 80.4765 92.7246 87.2016 87.7555 92.6905L66.5358 71.4707L87.5039 50.5004V62.7203C87.5039 64.4609 88.1954 66.1302 89.4261 67.3609C90.6569 68.5917 92.3262 69.2831 94.0667 69.2831H115.943V75.8459C115.943 76.2785 116.071 76.7014 116.312 77.0611C116.552 77.4207 116.894 77.7011 117.293 77.8666C117.693 78.0321 118.133 78.0754 118.557 77.9911C118.981 77.9067 119.371 77.6984 119.677 77.3926L127.786 69.2831H133.444C135.184 69.2831 136.853 68.5917 138.084 67.3609C139.315 66.1302 140.006 64.4609 140.006 62.7203V32.0939C140.006 30.3534 139.315 28.6841 138.084 27.4533C136.853 26.2226 135.184 25.5311 133.444 25.5311ZM15.3131 64.9079C15.3131 64.4967 15.3459 64.0832 15.3569 63.6698L30.8145 79.1273L22.1822 87.7574C17.6865 80.9863 15.2963 73.0356 15.3131 64.9079ZM36.7516 101.244L52.5023 85.4933L70.9722 103.963C65.4084 105.998 59.4709 106.809 53.5651 106.34C47.6593 105.87 41.9243 104.132 36.7516 101.244ZM135.631 62.7203C135.631 63.3005 135.401 63.857 134.99 64.2672C134.58 64.6775 134.024 64.9079 133.444 64.9079H126.881C126.301 64.9081 125.744 65.1386 125.334 65.5489L120.318 70.5651V67.0955C120.318 66.5154 120.087 65.9589 119.677 65.5487C119.267 65.1384 118.711 64.9079 118.13 64.9079H94.0667C93.4865 64.9079 92.9301 64.6775 92.5199 64.2672C92.1096 63.857 91.8791 63.3005 91.8791 62.7203V32.0939C91.8791 31.5138 92.1096 30.9573 92.5199 30.5471C92.9301 30.1368 93.4865 29.9063 94.0667 29.9063H133.444C134.024 29.9063 134.58 30.1368 134.99 30.5471C135.401 30.9573 135.631 31.5138 135.631 32.0939V62.7203Z" fill="black"/>
<path d="M124.052 34.9225C123.642 34.5124 123.086 34.282 122.506 34.282C121.925 34.282 121.369 34.5124 120.959 34.9225L109.38 46.5014L106.551 43.6729C106.141 43.2628 105.585 43.0324 105.005 43.0324C104.425 43.0324 103.868 43.2628 103.458 43.6729L99.0829 48.0481C98.6728 48.4583 98.4424 49.0146 98.4424 49.5947C98.4424 50.1748 98.6728 50.7311 99.0829 51.1413L107.833 59.8917C108.244 60.3019 108.8 60.5322 109.38 60.5322C109.96 60.5322 110.516 60.3019 110.927 59.8917L128.427 42.3909C128.837 41.9807 129.068 41.4244 129.068 40.8443C129.068 40.2642 128.837 39.7079 128.427 39.2977L124.052 34.9225ZM109.38 55.2518L103.723 49.5947L105.005 48.3128L107.833 51.1413C108.244 51.5515 108.8 51.7818 109.38 51.7818C109.96 51.7818 110.516 51.5515 110.927 51.1413L122.506 39.5624L123.787 40.8443L109.38 55.2518Z" fill="black"/>
</g>
<path d="M169.076 167.887C168.258 167.144 166.993 167.205 166.25 168.022C165.508 168.84 165.568 170.105 166.386 170.847L169.076 167.887ZM370.472 251.84C371.301 251.109 371.379 249.845 370.648 249.017L358.735 235.523C358.004 234.695 356.74 234.617 355.912 235.348C355.084 236.079 355.005 237.343 355.737 238.171L366.326 250.165L354.331 260.754C353.503 261.485 353.425 262.749 354.156 263.577C354.887 264.405 356.151 264.484 356.979 263.753L370.472 251.84ZM169.361 173.493C170.194 174.218 171.457 174.13 172.183 173.297C172.908 172.464 172.82 171.201 171.987 170.476L169.361 173.493ZM177.962 175.483C177.103 174.788 175.844 174.922 175.149 175.781C174.455 176.64 174.588 177.899 175.447 178.593L177.962 175.483ZM181.707 183.489C182.587 184.156 183.842 183.983 184.509 183.103C185.176 182.223 185.003 180.968 184.123 180.301L181.707 183.489ZM190.443 184.948C189.544 184.306 188.295 184.515 187.653 185.414C187.011 186.313 187.22 187.562 188.119 188.204L190.443 184.948ZM194.631 192.725C195.546 193.343 196.79 193.102 197.408 192.187C198.026 191.271 197.785 190.028 196.87 189.41L194.631 192.725ZM203.42 193.715C202.489 193.12 201.252 193.392 200.657 194.322C200.062 195.252 200.333 196.489 201.264 197.085L203.42 193.715ZM208.014 201.292C208.959 201.865 210.189 201.564 210.762 200.62C211.335 199.675 211.034 198.445 210.09 197.872L208.014 201.292ZM216.825 201.855C215.868 201.304 214.645 201.633 214.094 202.59C213.543 203.547 213.872 204.77 214.829 205.321L216.825 201.855ZM221.742 209.201C222.711 209.731 223.926 209.374 224.456 208.405C224.986 207.436 224.63 206.221 223.66 205.691L221.742 209.201ZM230.586 209.377C229.605 208.869 228.398 209.252 227.89 210.232C227.382 211.213 227.765 212.42 228.745 212.928L230.586 209.377ZM235.831 216.502C236.823 216.989 238.021 216.58 238.508 215.588C238.995 214.597 238.585 213.398 237.594 212.912L235.831 216.502ZM244.678 216.293C243.676 215.828 242.487 216.264 242.022 217.266C241.557 218.268 241.993 219.457 242.994 219.922L244.678 216.293ZM250.226 223.183C251.238 223.626 252.417 223.165 252.861 222.153C253.304 221.142 252.843 219.962 251.831 219.519L250.226 223.183ZM259.045 222.586C258.024 222.165 256.855 222.651 256.434 223.673C256.013 224.694 256.499 225.863 257.52 226.284L259.045 222.586ZM264.881 229.227C265.911 229.626 267.07 229.114 267.469 228.084C267.868 227.054 267.356 225.896 266.326 225.497L264.881 229.227ZM273.669 228.25C272.631 227.873 271.484 228.41 271.107 229.448C270.731 230.487 271.268 231.634 272.306 232.01L273.669 228.25ZM279.791 234.631C280.837 234.984 281.972 234.423 282.326 233.376C282.679 232.33 282.118 231.195 281.071 230.841L279.791 234.631ZM288.529 233.27C287.475 232.939 286.352 233.526 286.022 234.58C285.691 235.634 286.278 236.756 287.332 237.087L288.529 233.27ZM294.926 239.376C295.987 239.683 297.096 239.071 297.403 238.01C297.71 236.949 297.099 235.84 296.038 235.533L294.926 239.376ZM303.596 237.629C302.528 237.346 301.433 237.981 301.15 239.049C300.867 240.117 301.503 241.212 302.57 241.495L303.596 237.629ZM310.261 243.443C311.335 243.702 312.415 243.041 312.674 241.967C312.933 240.894 312.273 239.813 311.199 239.554L310.261 243.443ZM318.844 241.307C317.765 241.073 316.7 241.757 316.465 242.837C316.231 243.916 316.915 244.981 317.995 245.216L318.844 241.307ZM325.768 246.813C326.853 247.022 327.902 246.313 328.112 245.229C328.321 244.144 327.612 243.095 326.528 242.885L325.768 246.813ZM334.242 244.286C333.153 244.101 332.12 244.834 331.935 245.923C331.751 247.012 332.484 248.045 333.573 248.229L334.242 244.286ZM341.405 249.465C342.498 249.624 343.514 248.867 343.673 247.774C343.833 246.681 343.076 245.666 341.983 245.507L341.405 249.465ZM349.75 246.547C348.654 246.413 347.656 247.193 347.523 248.29C347.389 249.386 348.169 250.384 349.266 250.517L349.75 246.547ZM357.149 251.385C358.249 251.493 359.227 250.689 359.335 249.59C359.443 248.49 358.639 247.512 357.54 247.404L357.149 251.385ZM365.349 248.077C364.247 247.995 363.288 248.822 363.206 249.923C363.125 251.025 363.951 251.984 365.053 252.066L365.349 248.077ZM166.386 170.847C167.339 171.714 168.331 172.596 169.361 173.493L171.987 170.476C170.978 169.597 170.008 168.734 169.076 167.887L166.386 170.847ZM175.447 178.593C177.429 180.195 179.516 181.829 181.707 183.489L184.123 180.301C181.964 178.666 179.91 177.057 177.962 175.483L175.447 178.593ZM188.119 188.204C190.212 189.698 192.384 191.207 194.631 192.725L196.87 189.41C194.651 187.912 192.508 186.423 190.443 184.948L188.119 188.204ZM201.264 197.085C203.452 198.485 205.703 199.889 208.014 201.292L210.09 197.872C207.805 196.486 205.581 195.099 203.42 193.715L201.264 197.085ZM214.829 205.321C217.082 206.619 219.387 207.914 221.742 209.201L223.66 205.691C221.332 204.418 219.053 203.139 216.825 201.855L214.829 205.321ZM228.745 212.928C231.064 214.13 233.426 215.322 235.831 216.502L237.594 212.912C235.215 211.744 232.878 210.565 230.586 209.377L228.745 212.928ZM242.994 219.922C245.367 221.023 247.778 222.111 250.226 223.183L251.831 219.519C249.41 218.458 247.025 217.382 244.678 216.293L242.994 219.922ZM257.52 226.284C259.941 227.282 262.395 228.264 264.881 229.227L266.326 225.497C263.866 224.545 261.439 223.574 259.045 222.586L257.52 226.284ZM272.306 232.01C274.771 232.904 277.266 233.778 279.791 234.631L281.071 230.841C278.575 229.998 276.107 229.133 273.669 228.25L272.306 232.01ZM287.332 237.087C289.837 237.872 292.368 238.636 294.926 239.376L296.038 235.533C293.509 234.801 291.005 234.046 288.529 233.27L287.332 237.087ZM302.57 241.495C305.11 242.169 307.674 242.818 310.261 243.443L311.199 239.554C308.641 238.937 306.107 238.295 303.596 237.629L302.57 241.495ZM317.995 245.216C320.564 245.774 323.155 246.307 325.768 246.813L326.528 242.885C323.945 242.386 321.384 241.859 318.844 241.307L317.995 245.216ZM333.573 248.229C336.164 248.669 338.775 249.081 341.405 249.465L341.983 245.507C339.383 245.128 336.803 244.72 334.242 244.286L333.573 248.229ZM349.266 250.517C351.876 250.836 354.504 251.125 357.149 251.385L357.54 247.404C354.926 247.147 352.329 246.861 349.75 246.547L349.266 250.517ZM365.053 252.066C366.373 252.164 367.697 252.254 369.025 252.337L369.273 248.345C367.961 248.263 366.653 248.174 365.349 248.077L365.053 252.066Z" fill="black"/>
<path d="M665.817 252.6C664.715 252.681 663.888 253.639 663.969 254.741C664.05 255.843 665.009 256.67 666.11 256.589L665.817 252.6ZM865.405 164.432C865.445 163.328 864.583 162.4 863.479 162.36L845.491 161.701C844.387 161.661 843.46 162.523 843.419 163.626C843.379 164.73 844.241 165.658 845.345 165.698L861.334 166.284L860.748 182.273C860.708 183.377 861.57 184.305 862.674 184.345C863.778 184.386 864.705 183.523 864.746 182.42L865.405 164.432ZM670.077 256.254C671.177 256.15 671.984 255.174 671.879 254.074C671.775 252.975 670.799 252.168 669.699 252.272L670.077 256.254ZM677.445 251.39C676.349 251.534 675.579 252.539 675.723 253.634C675.868 254.729 676.872 255.5 677.967 255.356L677.445 251.39ZM685.829 254.19C686.919 254.012 687.657 252.983 687.478 251.893C687.3 250.803 686.271 250.064 685.181 250.243L685.829 254.19ZM692.904 248.862C691.819 249.072 691.11 250.121 691.319 251.205C691.529 252.29 692.578 252.999 693.663 252.79L692.904 248.862ZM701.426 251.183C702.505 250.945 703.186 249.878 702.949 248.8C702.711 247.721 701.644 247.039 700.565 247.277L701.426 251.183ZM708.198 245.494C707.125 245.759 706.47 246.842 706.735 247.915C706.999 248.987 708.083 249.642 709.155 249.378L708.198 245.494ZM716.855 247.382C717.921 247.093 718.55 245.994 718.26 244.928C717.971 243.862 716.872 243.233 715.806 243.522L716.855 247.382ZM723.333 241.383C722.274 241.697 721.67 242.81 721.984 243.869C722.298 244.928 723.411 245.532 724.47 245.218L723.333 241.383ZM732.045 242.879C733.096 242.541 733.675 241.415 733.337 240.363C733 239.311 731.873 238.733 730.822 239.07L732.045 242.879ZM738.264 236.589C737.22 236.95 736.666 238.089 737.027 239.133C737.388 240.177 738.527 240.731 739.571 240.37L738.264 236.589ZM747.043 237.695C748.079 237.311 748.607 236.16 748.224 235.125C747.84 234.089 746.689 233.56 745.654 233.944L747.043 237.695ZM752.985 231.137C751.958 231.543 751.454 232.705 751.861 233.733C752.267 234.76 753.428 235.263 754.456 234.857L752.985 231.137ZM761.801 231.861C762.82 231.433 763.298 230.261 762.87 229.242C762.441 228.224 761.269 227.746 760.251 228.174L761.801 231.861ZM767.444 225.057C766.435 225.507 765.982 226.69 766.432 227.698C766.882 228.707 768.065 229.16 769.074 228.71L767.444 225.057ZM776.278 225.401C777.277 224.929 777.704 223.737 777.232 222.738C776.76 221.739 775.568 221.312 774.569 221.784L776.278 225.401ZM781.622 218.357C780.634 218.851 780.233 220.052 780.727 221.04C781.22 222.028 782.422 222.429 783.41 221.936L781.622 218.357ZM790.465 218.315C791.442 217.8 791.817 216.59 791.302 215.613C790.787 214.636 789.577 214.261 788.6 214.776L790.465 218.315ZM795.497 211.043C794.532 211.58 794.184 212.797 794.72 213.763C795.257 214.728 796.474 215.076 797.44 214.54L795.497 211.043ZM804.33 210.611C805.284 210.053 805.605 208.828 805.047 207.875C804.489 206.922 803.264 206.601 802.311 207.158L804.33 210.611ZM809.036 203.123C808.095 203.702 807.802 204.934 808.381 205.874C808.96 206.815 810.192 207.109 811.132 206.53L809.036 203.123ZM817.842 202.296C818.769 201.696 819.035 200.458 818.435 199.53C817.835 198.603 816.597 198.338 815.669 198.937L817.842 202.296ZM822.206 194.603C821.293 195.224 821.055 196.468 821.676 197.381C822.297 198.295 823.541 198.532 824.454 197.911L822.206 194.603ZM830.966 193.376C831.866 192.734 832.074 191.485 831.433 190.586C830.791 189.687 829.542 189.478 828.643 190.12L830.966 193.376ZM834.972 185.493C834.088 186.155 833.908 187.408 834.57 188.292C835.232 189.177 836.486 189.356 837.37 188.694L834.972 185.493ZM843.661 183.867C844.529 183.184 844.68 181.927 843.997 181.059C843.315 180.19 842.057 180.04 841.189 180.722L843.661 183.867ZM847.293 175.808C846.441 176.51 846.32 177.771 847.022 178.623C847.725 179.475 848.986 179.597 849.838 178.894L847.293 175.808ZM855.897 173.776C856.733 173.054 856.824 171.791 856.102 170.955C855.379 170.12 854.116 170.028 853.281 170.751L855.897 173.776ZM859.147 165.554C858.329 166.296 858.268 167.561 859.01 168.379C859.752 169.197 861.017 169.258 861.835 168.516L859.147 165.554ZM666.11 256.589C667.395 256.495 668.718 256.383 670.077 256.254L669.699 252.272C668.368 252.399 667.073 252.508 665.817 252.6L666.11 256.589ZM677.967 255.356C680.493 255.023 683.116 254.635 685.829 254.19L685.181 250.243C682.509 250.681 679.928 251.062 677.445 251.39L677.967 255.356ZM693.663 252.79C696.188 252.302 698.778 251.767 701.426 251.183L700.565 247.277C697.95 247.853 695.395 248.381 692.904 248.862L693.663 252.79ZM709.155 249.378C711.678 248.756 714.246 248.092 716.855 247.382L715.806 243.522C713.227 244.223 710.69 244.88 708.198 245.494L709.155 249.378ZM724.47 245.218C726.964 244.479 729.489 243.699 732.045 242.879L730.822 239.07C728.295 239.882 725.798 240.652 723.333 241.383L724.47 245.218ZM739.571 240.37C742.039 239.517 744.53 238.625 747.043 237.695L745.654 233.944C743.169 234.864 740.705 235.745 738.264 236.589L739.571 240.37ZM754.456 234.857C756.888 233.896 759.338 232.897 761.801 231.861L760.251 228.174C757.814 229.199 755.391 230.186 752.985 231.137L754.456 234.857ZM769.074 228.71C771.465 227.643 773.867 226.54 776.278 225.401L774.569 221.784C772.184 222.911 769.808 224.002 767.444 225.057L769.074 228.71ZM783.41 221.936C785.755 220.764 788.108 219.557 790.465 218.315L788.6 214.776C786.269 216.005 783.942 217.198 781.622 218.357L783.41 221.936ZM797.44 214.54C799.735 213.265 802.032 211.956 804.33 210.611L802.311 207.158C800.038 208.488 797.766 209.783 795.497 211.043L797.44 214.54ZM811.132 206.53C813.37 205.153 815.607 203.742 817.842 202.296L815.669 198.937C813.46 200.367 811.248 201.762 809.036 203.123L811.132 206.53ZM824.454 197.911C826.629 196.433 828.8 194.922 830.966 193.376L828.643 190.12C826.502 191.648 824.356 193.142 822.206 194.603L824.454 197.911ZM837.37 188.694C839.473 187.119 841.571 185.51 843.661 183.867L841.189 180.722C839.123 182.346 837.05 183.936 834.972 185.493L837.37 188.694ZM849.838 178.894C851.866 177.221 853.887 175.516 855.897 173.776L853.281 170.751C851.294 172.47 849.298 174.155 847.293 175.808L849.838 178.894ZM861.835 168.516C862.815 167.627 863.793 166.729 864.767 165.824L862.044 162.893C861.081 163.788 860.116 164.675 859.147 165.554L861.835 168.516Z" fill="black"/>
<defs>
<clipPath id="clip0_256_82">
<rect width="155.814" height="155.814" fill="white" transform="translate(889.718 0.126709)"/>
</clipPath>
<clipPath id="clip1_256_82">
<rect width="140.006" height="140.006" fill="white" transform="translate(0 8.03027)"/>
</clipPath>
</defs>
</svg>
